PathFileType	4	(X/Y/Z)	C:\Users\chris\Documents\GitHub\baseballds\vids\pitch5_Sports2D\pitch5_Sports2D_m_person04.trc
DataRate	CameraRate	NumFrames	NumMarkers	Units	OrigDataRate	OrigDataStartFrame	OrigNumFrames
30	30	7	22	m	30	37	149
Frame#	Time	Hip			RHip			RKnee			RAnkle			RBigToe			RSmallToe			RHeel			LHip			LKnee			LAnkle			LBigToe			LSmallToe			LHeel			Neck			Head			Nose			RShoulder			RElbow			RWrist			LShoulder			LElbow			LWrist		
		X1	Y1	Z1	X2	Y2	Z2	X3	Y3	Z3	X4	Y4	Z4	X5	Y5	Z5	X6	Y6	Z6	X7	Y7	Z7	X8	Y8	Z8	X9	Y9	Z9	X10	Y10	Z10	X11	Y11	Z11	X12	Y12	Z12	X13	Y13	Z13	X14	Y14	Z14	X15	Y15	Z15	X16	Y16	Z16	X17	Y17	Z17	X18	Y18	Z18	X19	Y19	Z19	X20	Y20	Z20	X21	Y21	Z21	X22	Y22	Z22
37	1.2333333333333334	2.6384258898159754	1.3134485744573825	0.0	2.630915347173016	1.3119892261125212	0.0	2.6303614991505877	1.288031540370905	0.0	2.6289599470192333	1.2646728833482235	0.0	2.628933825578679	1.260214687316331	0.0	2.6245243839698937	1.2607763794665559	0.0	2.6306686284357865	1.2626400827376845	0.0	2.6461582212259667	1.3124170761778913	0.0	2.647639573834041	1.28871729254064	0.0	2.65364894274987	1.265237952516626	0.0	2.65042348440731	1.2605894817105425	0.0	2.65732753248524	1.262609093954629	0.0	2.654256829154552	1.263399310824854	0.0	2.6443249333163137	1.350843471905939	0.0	2.6492954270430316	1.3694750528430815	0.0	2.6469549829296994	1.3579160959803354	0.0	2.6316202152483164	1.3488771204535053	0.0	2.624127703930027	1.3387274002593608	0.0	2.61454399789709	1.3447025295305923	0.0	2.652098493970944	1.3469352383224507	0.0	2.647028486786821	1.342410316548109	0.0	2.620642022265406	1.350429281944747	0.0
38	1.2666666666666666	2.6399013360902295	1.3121988950199657	0.0	2.632365413246263	1.311054462038582	0.0	2.6316115650524345	1.2869924914801787	0.0	2.6300269523178343	1.2636193257362038	0.0	2.6289864106411662	1.2589651992450437	0.0	2.6251714898397642	1.259853477606539	0.0	2.63219598193148	1.2617799810405472	0.0	2.647667928247364	1.3114655690049037	0.0	2.649110480775394	1.2877091369708678	0.0	2.6550471809819487	1.2642967139204249	0.0	2.6519376655768867	1.2592481352784233	0.0	2.6579622168717703	1.26102688621302	0.0	2.6558112808222436	1.2620146761315307	0.0	2.6458004756043625	1.3501699903662474	0.0	2.6501862830499365	1.3686373227870132	0.0	2.6477462390846123	1.3574539564050276	0.0	2.633475272570306	1.3481480214077224	0.0	2.6250429528080357	1.340118424301136	0.0	2.615525939096344	1.3447849127902929	0.0	2.6533911102967034	1.3464132478806505	0.0	2.644698528218777	1.3447494690348083	0.0	2.621428290532004	1.348735826719097	0.0
39	1.3	2.6414181675919437	1.3112701988161446	0.0	2.6341058586366	1.310258386810469	0.0	2.6329887300067063	1.2859588329742095	0.0	2.6313933528055062	1.2628219212483422	0.0	2.630909604376978	1.2580491575078454	0.0	2.626685599285169	1.2589824621686392	0.0	2.6338926968559906	1.2607998459260283	0.0	2.649038329648285	1.3106712050611748	0.0	2.6505136640339106	1.2865654673035987	0.0	2.6565157609729755	1.2631486149109483	0.0	2.652720809259233	1.2579316743308113	0.0	2.6580757410028197	1.2595396991937933	0.0	2.6576357672411786	1.2608500755736571	0.0	2.6471694210686545	1.349374030311962	0.0	2.6507877430803406	1.3678142856325763	0.0	2.648267701677628	1.356812239596269	0.0	2.6356729655350453	1.3470839887489323	0.0	2.626688610644666	1.3408074574536977	0.0	2.61626629542945	1.344229100100881	0.0	2.654605342813456	1.3455206882609296	0.0	2.6430006368671246	1.3444842587704937	0.0	2.622548269405356	1.34728320227382	0.0
40	1.3333333333333333	2.642954358478767	1.3103680870216525	0.0	2.6359428486665064	1.3093304341982601	0.0	2.6344248539284814	1.2849197288897654	0.0	2.632891966250616	1.2620510912606504	0.0	2.6324919134062674	1.2572585868576263	0.0	2.628138927596811	1.2581843641980526	0.0	2.6354641769942955	1.2598424825294765	0.0	2.650355813382395	1.3097028379207427	0.0	2.651867171999164	1.2852305303890013	0.0	2.657799360785763	1.2618120582715255	0.0	2.653593202438811	1.257008517753216	0.0	2.65851479078524	1.2583761295078224	0.0	2.6591158949605025	1.2597856554608609	0.0	2.6484868577132614	1.348260986736741	0.0	2.6516273641091352	1.3669093587692562	0.0	2.649081397166567	1.355778439033151	0.0	2.6379765067988843	1.345733304528778	0.0	2.628650642521607	1.3401140250042232	0.0	2.6171507982876054	1.3431128951989246	0.0	2.655643867679303	1.3443529477646583	0.0	2.6422645115964536	1.342677892261412	0.0	2.623612772132561	1.3458061127658498	0.0
41	1.3666666666666667	2.6444258970743566	1.3093149598344866	0.0	2.6376353787118147	1.3081886888234802	0.0	2.635776024172901	1.28386662049944	0.0	2.63425393600581	1.2610280702934746	0.0	2.6315414683399507	1.256185369624265	0.0	2.6283770669040263	1.257256307786246	0.0	2.6368698788175506	1.2588433315861958	0.0	2.6515619459486803	1.3084216024080724	0.0	2.653136216894583	1.283773574434872	0.0	2.658777560110615	1.2603754419842772	0.0	2.6551059819142657	1.256385777711084	0.0	2.659913252680416	1.257496213460117	0.0	2.6598483112584774	1.2586101960807319	0.0	2.649697005453972	1.34704685366097	0.0	2.6525563840120188	1.3658811208625294	0.0	2.649931458699565	1.3544840607959199	0.0	2.6400268445497086	1.3443238917485039	0.0	2.62995226679806	1.3381165165431232	0.0	2.618342327229465	1.3413932587140438	0.0	2.656430675755819	1.3433401845376725	0.0	2.6430386134322625	1.340701071767871	0.0	2.6240446905710946	1.3438823358773877	0.0
42	1.4	2.645812067535965	1.308231668824148	0.0	2.63914250286232	1.3070298347697775	0.0	2.6370324227746758	1.2828561728025134	0.0	2.635319612862843	1.2597309872067817	0.0	2.629662241877766	1.2548234650993375	0.0	2.627926258104004	1.2559418752082276	0.0	2.63783481289478	1.25760820264297	0.0	2.652704475303729	1.3070782734008444	0.0	2.6542958316688994	1.282377551549559	0.0	2.6595110161839433	1.2590000835691488	0.0	2.6563470372647346	1.255610050355329	0.0	2.6618113605624405	1.2567411886070343	0.0	2.660149689121834	1.2574290030503241	0.0	2.6507550506817976	1.3458636383173264	0.0	2.6534743148200306	1.3646025913220288	0.0	2.6507483128753635	1.3530404710345534	0.0	2.6416283599335904	1.3429791171228587	0.0	2.630637699002618	1.3354796798871122	0.0	2.6198195294835793	1.339297794169593	0.0	2.6571184633047986	1.3425723842989643	0.0	2.64594070979272	1.3387109481831707	0.0	2.624156700680533	1.3414243178783196	0.0
43	1.4333333333333333	2.6468821466419863	1.3074275616507691	0.0	2.6402722815630817	1.306222898292354	0.0	2.6380080776734243	1.2821155283449437	0.0	2.63594599226798	1.258571398878792	0.0	2.6290361985923467	1.2536858528438817	0.0	2.6277580998492307	1.2545694561559233	0.0	2.6381158674280836	1.2564206184117157	0.0	2.6536465392138537	1.3061545183108114	0.0	2.6551562432295746	1.2813800185496012	0.0	2.6599826954543526	1.258021144689209	0.0	2.6565368757682295	1.254693814890134	0.0	2.66331375722932	1.2561786266415826	0.0	2.660381385362898	1.2566180134393479	0.0	2.6514891129121985	1.344899702996213	0.0	2.654190048375128	1.3633393227083241	0.0	2.6514866493451055	1.3517678564895965	0.0	2.6426242250684244	1.3419363465126903	0.0	2.6311705788512274	1.3332745387169849	0.0	2.6211708825814375	1.3374988515473187	0.0	2.657676873149243	1.342056030686675	0.0	2.6498864540473934	1.3368784852912128	0.0	2.6244184641679684	1.3391096850564892	0.0
